<svg xmlns="http://www.w3.org/2000/svg" xmlns:xlink="http://www.w3.org/1999/xlink" preserveAspectRatio="xMidYMid" width="24" height="17" viewBox="0 0 24 17">
  <defs>
    <style>

      .cls-2 {
        fill: #ffffff;
      }
    </style>
  </defs>
  <path d="M9.654,7.217 C9.654,7.217 11.921,7.036 11.921,4.204 C11.921,1.372 10.066,-0.011 7.718,-0.011 C7.718,-0.011 -0.011,-0.011 -0.011,-0.011 C-0.011,-0.011 -0.011,15.819 -0.011,15.819 C-0.011,15.819 7.718,15.819 7.718,15.819 C7.718,15.819 12.435,15.977 12.435,11.148 C12.436,11.148 12.641,7.217 9.654,7.217 ZM3.395,2.802 C3.395,2.802 7.718,2.802 7.718,2.802 C7.718,2.802 8.768,2.802 8.768,4.449 C8.768,6.097 8.150,6.335 7.448,6.335 C7.448,6.335 3.395,6.335 3.395,6.335 C3.395,6.335 3.395,2.802 3.395,2.802 ZM7.499,13.006 C7.499,13.006 3.395,13.006 3.395,13.006 C3.395,13.006 3.395,8.775 3.395,8.775 C3.395,8.775 7.718,8.775 7.718,8.775 C7.718,8.775 9.284,8.753 9.284,10.948 C9.284,12.800 8.114,12.993 7.499,13.006 ZM18.729,4.017 C13.016,4.017 13.021,10.097 13.021,10.097 C13.021,10.097 12.629,16.148 18.729,16.148 C18.729,16.148 23.811,16.459 23.811,11.938 C23.811,11.938 21.198,11.938 21.198,11.938 C21.198,11.938 21.284,13.641 18.816,13.641 C18.816,13.641 16.201,13.827 16.201,10.889 C16.201,10.889 23.898,10.889 23.898,10.889 C23.900,10.890 24.742,4.017 18.729,4.017 ZM21.053,8.776 C21.053,8.776 16.174,8.776 16.174,8.776 C16.174,8.776 16.494,6.335 18.788,6.335 C21.080,6.335 21.053,8.776 21.053,8.776 ZM21.663,0.922 C21.663,0.922 15.533,0.922 15.533,0.922 C15.533,0.922 15.533,2.871 15.533,2.871 C15.533,2.871 21.661,2.871 21.661,2.871 C21.661,2.871 21.661,0.922 21.661,0.922 C21.661,0.922 21.663,0.922 21.663,0.922 Z" id="path-1" class="cls-2" fill-rule="evenodd"/>
</svg>
