<svg xmlns="http://www.w3.org/2000/svg" xmlns:xlink="http://www.w3.org/1999/xlink" preserveAspectRatio="xMidYMid" width="13" height="25" viewBox="0 0 13 25">
  <defs>
    <style>

      .cls-2 {
        fill: #ffffff;
      }
    </style>
  </defs>
  <path d="M2.823,13.270 C2.823,13.270 2.823,24.007 2.823,24.007 C2.823,24.007 8.174,24.007 8.174,24.007 C8.174,24.007 8.174,13.322 8.174,13.322 C8.174,13.322 11.827,13.322 11.827,13.322 C11.827,13.322 12.711,8.867 12.711,8.867 C12.711,8.867 8.213,8.867 8.213,8.867 C8.213,8.867 8.213,6.771 8.213,5.599 C8.213,5.147 8.459,4.544 9.208,4.544 C10.362,4.544 11.808,4.544 11.808,4.544 C11.808,4.544 11.808,0.007 11.808,0.007 C11.808,0.007 9.465,0.007 6.953,0.007 C5.278,0.007 2.805,2.021 2.805,4.162 C2.805,6.366 2.805,8.740 2.805,8.740 C2.805,8.740 -0.003,8.740 -0.003,8.740 C-0.003,8.740 -0.003,13.251 -0.003,13.251 C-0.003,13.251 2.823,13.270 2.823,13.270 Z" id="path-1" class="cls-2" fill-rule="evenodd"/>
</svg>
