<svg xmlns="http://www.w3.org/2000/svg" xmlns:xlink="http://www.w3.org/1999/xlink" preserveAspectRatio="xMidYMid" width="24" height="24" viewBox="0 0 24 24">
  <defs>
    <style>

      .cls-2 {
        fill: #ffffff;
      }
    </style>
  </defs>
  <path d="M5.427,2.611 C5.427,4.047 4.380,5.211 2.659,5.211 C1.039,5.211 -0.008,4.047 -0.008,2.611 C-0.008,1.141 1.074,0.011 2.727,0.011 C4.380,0.011 5.393,1.141 5.427,2.611 ZM0.128,23.990 C0.128,23.990 0.128,7.264 0.128,7.264 C0.128,7.264 5.259,7.264 5.259,7.264 C5.259,7.264 5.259,23.990 5.259,23.990 C5.259,23.990 0.128,23.990 0.128,23.990 ZM8.329,12.599 C8.329,10.513 8.262,8.769 8.193,7.264 C8.193,7.264 12.649,7.264 12.649,7.264 C12.649,7.264 12.887,9.591 12.887,9.591 C12.887,9.591 12.988,9.591 12.988,9.591 C13.663,8.495 15.317,6.888 18.085,6.888 C21.460,6.888 23.992,9.180 23.992,14.105 C23.992,14.105 23.992,23.991 23.992,23.991 C23.992,23.991 18.861,23.991 18.861,23.991 C18.861,23.991 18.861,14.722 18.861,14.722 C18.861,12.567 18.117,11.095 16.261,11.095 C14.844,11.095 14.001,12.087 13.629,13.045 C13.494,13.387 13.460,13.865 13.460,14.345 C13.460,14.345 13.460,23.991 13.460,23.991 C13.460,23.991 8.329,23.991 8.329,23.991 C8.329,23.991 8.329,12.599 8.329,12.599 Z" id="path-1" class="cls-2" fill-rule="evenodd"/>
</svg>
