<svg xmlns="http://www.w3.org/2000/svg" xmlns:xlink="http://www.w3.org/1999/xlink" preserveAspectRatio="xMidYMid" width="41" height="41" viewBox="0 0 41 41">
  <defs>
    <style>

      .cls-2 {
        fill: #ffffff;
        opacity: 0.9;
      }
    </style>
  </defs>
  <path d="M40.275,0.762 C39.274,-0.239 37.637,-0.239 36.635,0.762 C36.635,0.762 31.418,5.985 31.418,5.985 C29.280,4.562 26.827,3.857 24.364,3.857 C21.084,3.857 17.697,5.109 15.302,7.613 C15.302,7.613 7.612,15.304 7.612,15.304 C3.226,19.686 2.685,26.461 5.980,31.433 C5.980,31.433 0.763,36.656 0.763,36.656 C-0.237,37.658 -0.237,39.280 0.763,40.281 C1.264,40.782 1.918,41.033 2.575,41.033 C3.231,41.033 3.886,40.782 4.387,40.281 C4.387,40.281 9.603,35.059 9.603,35.059 C11.741,36.481 14.210,37.187 16.673,37.187 C19.846,37.187 23.232,35.935 25.736,33.432 C25.736,33.432 33.411,25.740 33.411,25.740 C37.797,21.358 38.337,14.583 35.042,9.610 C35.042,9.610 40.274,4.387 40.274,4.387 C41.276,3.386 41.276,1.764 40.275,0.762 ZM32.039,16.676 C32.039,18.730 31.238,20.661 29.786,22.114 C29.786,22.114 22.111,29.806 22.111,29.806 C20.653,31.258 18.619,32.059 16.673,32.059 C15.512,32.059 14.401,31.774 13.380,31.288 C13.380,31.288 17.097,27.462 17.097,27.462 C18.097,26.461 18.097,24.838 17.097,23.836 C16.203,22.835 14.581,22.835 13.579,23.836 C13.579,23.836 9.755,27.663 9.755,27.663 C9.264,26.646 8.983,25.534 8.983,24.367 C8.983,22.314 9.784,20.382 11.236,18.929 C11.236,18.929 18.819,11.238 18.819,11.238 C20.271,9.785 22.311,8.985 24.364,8.985 C25.525,8.985 26.632,9.270 27.653,9.756 C27.653,9.756 23.753,13.662 23.753,13.662 C22.752,14.664 22.752,16.286 23.753,17.287 C24.254,17.789 24.908,18.039 25.565,18.039 C26.216,18.039 26.872,17.789 27.373,17.287 C27.373,17.287 31.268,13.382 31.268,13.382 C31.759,14.399 32.039,15.509 32.039,16.676 Z" id="path-1" class="cls-2" fill-rule="evenodd"/>
</svg>
