<svg xmlns="http://www.w3.org/2000/svg" xmlns:xlink="http://www.w3.org/1999/xlink" preserveAspectRatio="xMidYMid" width="116" height="116" viewBox="0 0 116 116">
  <defs>
    <style>

      .cls-2 {
        fill: #005494;
      }
    </style>
  </defs>
  <path d="M58.000,-0.001 C25.968,-0.001 -0.001,25.967 -0.001,57.999 C-0.001,90.034 25.968,116.000 58.000,116.000 C90.032,116.000 116.000,90.034 116.000,57.999 C116.000,25.967 90.032,-0.001 58.000,-0.001 ZM51.153,74.659 C51.153,74.659 50.750,74.259 50.750,74.259 C50.750,74.259 50.347,74.662 50.347,74.662 C50.347,74.662 34.088,58.402 34.088,58.402 C34.088,58.402 36.651,55.839 36.651,55.839 C36.651,55.839 50.750,69.936 50.750,69.936 C50.750,69.936 79.346,41.339 79.346,41.339 C79.346,41.339 81.910,43.902 81.910,43.902 C81.910,43.902 51.153,74.659 51.153,74.659 Z" id="path-1" class="cls-2" fill-rule="evenodd"/>
</svg>
