<svg xmlns="http://www.w3.org/2000/svg" xmlns:xlink="http://www.w3.org/1999/xlink" preserveAspectRatio="xMidYMid" width="192" height="149" viewBox="0 0 192 149">
  <defs>
    <style>

      .cls-2 {
        fill: #005494;
      }
    </style>
  </defs>
  <path d="M141.394,146.316 C141.394,146.316 141.394,62.664 141.394,62.664 C141.394,62.664 191.909,62.664 191.909,62.664 C191.909,62.664 191.909,146.316 191.909,146.316 C191.909,146.316 141.394,146.316 141.394,146.316 ZM167.296,142.705 C168.901,142.705 170.211,141.415 170.211,139.831 C170.211,138.247 168.901,136.965 167.296,136.965 C165.683,136.965 164.381,138.254 164.381,139.831 C164.381,141.415 165.691,142.705 167.296,142.705 ZM167.773,66.128 C167.099,66.128 166.551,66.660 166.551,67.327 C166.551,67.988 167.099,68.533 167.773,68.533 C168.448,68.533 168.992,67.988 168.992,67.327 C168.992,66.663 168.448,66.128 167.773,66.128 ZM175.039,70.139 C175.039,70.139 160.508,70.139 160.508,70.139 C160.508,70.139 160.508,71.288 160.508,71.288 C160.508,71.288 175.039,71.288 175.039,71.288 C175.039,71.288 175.039,70.139 175.039,70.139 ZM183.803,75.397 C183.803,75.397 149.500,75.404 149.500,75.404 C149.500,75.404 149.500,132.919 149.500,132.919 C156.003,132.973 170.684,132.927 183.803,132.853 C183.803,132.853 183.803,75.397 183.803,75.397 ZM157.716,10.456 C157.716,10.456 37.186,10.456 37.186,10.456 C37.186,10.456 37.186,32.224 37.186,32.224 C37.186,32.224 26.565,32.224 26.565,32.224 C26.565,32.224 26.565,0.004 26.565,0.004 C26.565,0.004 168.338,0.004 168.338,0.004 C168.338,0.004 168.338,58.609 168.338,58.609 C168.338,58.609 157.716,58.609 157.716,58.609 C157.716,58.609 157.716,10.456 157.716,10.456 ZM75.199,148.052 C75.199,148.052 -0.013,148.052 -0.013,148.052 C-0.013,148.052 -0.013,36.973 -0.013,36.973 C-0.013,36.973 75.199,36.973 75.199,36.973 C75.199,36.973 75.199,148.052 75.199,148.052 ZM39.179,142.483 C41.183,142.483 42.812,140.872 42.806,138.907 C42.806,136.942 41.183,135.342 39.179,135.342 C37.177,135.342 35.557,136.942 35.557,138.907 C35.557,140.872 37.177,142.483 39.179,142.483 ZM10.863,47.677 C10.863,47.677 10.863,129.634 10.863,129.634 C10.863,129.634 64.326,129.634 64.326,129.634 C64.326,129.634 64.330,47.677 64.330,47.677 C64.330,47.677 10.863,47.677 10.863,47.677 ZM135.904,92.029 C135.904,92.029 80.046,92.029 80.046,92.029 C80.046,92.029 80.046,81.577 80.046,81.577 C80.046,81.577 135.904,81.577 135.904,81.577 C135.904,81.577 135.904,92.029 135.904,92.029 ZM99.462,96.309 C99.462,96.309 135.904,96.309 135.904,96.309 C135.904,96.309 135.904,111.147 135.904,111.147 C135.904,111.147 80.046,111.147 80.046,111.147 C80.046,111.147 80.046,105.419 80.046,105.419 C80.046,105.419 117.487,105.419 117.487,105.419 C117.487,105.419 117.487,102.647 117.487,102.647 C117.487,102.647 80.046,102.647 80.046,102.647 C80.046,102.647 80.046,96.309 80.046,96.309 C80.046,96.309 95.419,96.309 95.419,96.309 C95.419,96.309 99.462,96.309 99.462,96.309 Z" id="path-1" class="cls-2" fill-rule="evenodd"/>
</svg>
