<svg xmlns="http://www.w3.org/2000/svg" xmlns:xlink="http://www.w3.org/1999/xlink" preserveAspectRatio="xMidYMid" width="24" height="20" viewBox="0 0 24 20">
  <defs>
    <style>

      .cls-2 {
        fill: #ffffff;
      }
    </style>
  </defs>
  <path d="M23.992,2.315 C23.109,2.706 22.160,2.971 21.164,3.090 C22.181,2.481 22.962,1.516 23.329,0.367 C22.378,0.931 21.324,1.341 20.202,1.562 C19.305,0.604 18.025,0.007 16.608,0.007 C13.889,0.007 11.684,2.211 11.684,4.929 C11.684,5.315 11.728,5.691 11.812,6.052 C7.719,5.846 4.091,3.886 1.663,0.908 C1.239,1.635 0.996,2.481 0.996,3.383 C0.996,5.091 1.866,6.598 3.187,7.480 C2.379,7.454 1.620,7.234 0.957,6.865 C0.956,6.885 0.956,6.905 0.956,6.926 C0.956,9.311 2.653,11.301 4.906,11.753 C4.493,11.866 4.058,11.926 3.609,11.926 C3.291,11.926 2.983,11.895 2.682,11.838 C3.309,13.793 5.127,15.217 7.282,15.256 C5.597,16.577 3.474,17.364 1.167,17.364 C0.769,17.364 0.377,17.341 -0.008,17.295 C2.171,18.692 4.759,19.507 7.540,19.507 C16.597,19.507 21.549,12.006 21.549,5.500 C21.549,5.286 21.545,5.075 21.535,4.864 C22.498,4.169 23.332,3.302 23.992,2.315 Z" id="path-1" class="cls-2" fill-rule="evenodd"/>
</svg>
