<svg xmlns="http://www.w3.org/2000/svg" xmlns:xlink="http://www.w3.org/1999/xlink" preserveAspectRatio="xMidYMid" width="24" height="21" viewBox="0 0 24 21">
  <defs>
    <style>

      .cls-2 {
        fill: #ffffff;
      }
    </style>
  </defs>
  <path d="M0.008,5.782 C0.008,5.782 0.993,7.076 0.993,7.076 C0.993,7.076 3.024,5.472 3.702,6.273 C4.379,7.076 6.964,16.762 7.826,18.548 C8.580,20.115 10.657,22.187 12.935,20.707 C15.212,19.228 22.783,12.751 24.139,5.102 C25.493,-2.544 15.027,-0.943 13.919,5.719 C16.689,4.053 18.168,6.396 16.750,9.050 C15.335,11.701 14.042,13.430 13.365,13.430 C12.689,13.430 12.169,11.657 11.395,8.555 C10.594,5.349 10.600,-0.426 7.271,0.229 C4.133,0.846 0.008,5.782 0.008,5.782 Z" id="path-1" class="cls-2" fill-rule="evenodd"/>
</svg>
