<svg xmlns="http://www.w3.org/2000/svg" xmlns:xlink="http://www.w3.org/1999/xlink" preserveAspectRatio="xMidYMid" width="112" height="19" viewBox="0 0 112 19">
  <defs>
    <style>

      .cls-2 {
        fill: #ffffff;
        filter: url(#color-overlay-1);
      }
    </style>

    <filter id="color-overlay-1" filterUnits="userSpaceOnUse">
      <feFlood flood-color="#323a45" flood-opacity="1"/>
      <feComposite operator="in" in2="SourceGraphic"/>
      <feBlend mode="normal" in2="SourceGraphic" result="colorOverlay"/>
    </filter>
  </defs>
  <path d="M104.966,11.851 C104.966,11.851 104.966,18.750 104.966,18.750 C104.966,18.750 100.092,18.750 100.092,18.750 C100.092,18.750 100.092,11.851 100.092,11.851 C100.092,11.851 93.243,0.004 93.243,0.004 C93.243,0.004 98.917,0.004 98.917,0.004 C98.917,0.004 102.516,6.253 102.516,6.253 C102.516,6.253 106.140,0.004 106.140,0.004 C106.140,0.004 111.814,0.004 111.814,0.004 C111.814,0.004 104.966,11.851 104.966,11.851 ZM84.741,13.776 C86.015,13.776 87.115,13.326 87.890,12.526 C87.890,12.526 91.389,15.975 91.389,15.975 C89.690,17.675 87.340,18.750 84.741,18.750 C79.567,18.750 75.368,14.551 75.368,9.377 C75.368,4.203 79.567,0.004 84.741,0.004 C87.315,0.004 89.640,1.029 91.339,2.728 C91.339,2.728 87.890,6.203 87.890,6.203 C87.115,5.428 86.015,4.978 84.741,4.978 C82.191,4.978 80.342,6.828 80.342,9.377 C80.342,11.927 82.191,13.776 84.741,13.776 ZM62.417,9.877 C62.417,9.877 62.417,18.750 62.417,18.750 C62.417,18.750 57.493,18.750 57.493,18.750 C57.493,18.750 57.493,0.004 57.493,0.004 C57.493,0.004 59.492,0.004 59.492,0.004 C59.492,0.004 68.365,8.852 68.365,8.852 C68.365,8.852 68.365,0.004 68.365,0.004 C68.365,0.004 73.289,0.004 73.289,0.004 C73.289,0.004 73.289,18.750 73.289,18.750 C73.289,18.750 71.265,18.750 71.265,18.750 C71.265,18.750 62.417,9.877 62.417,9.877 ZM46.341,18.750 C42.217,18.750 38.943,15.476 38.943,11.352 C38.943,11.352 38.943,0.004 38.943,0.004 C38.943,0.004 43.892,0.004 43.892,0.004 C43.892,0.004 43.892,11.276 43.892,11.276 C43.892,12.626 44.992,13.726 46.341,13.726 C47.691,13.726 48.791,12.626 48.791,11.276 C48.791,11.276 48.791,0.004 48.791,0.004 C48.791,0.004 53.739,0.004 53.739,0.004 C53.739,0.004 53.739,11.352 53.739,11.352 C53.739,15.476 50.415,18.750 46.341,18.750 ZM26.666,18.750 C21.492,18.750 17.318,14.576 17.318,9.402 C17.318,4.228 21.492,0.004 26.666,0.004 C31.840,0.004 36.039,4.228 36.039,9.402 C36.039,14.576 31.840,18.750 26.666,18.750 ZM26.666,4.903 C24.216,4.903 22.217,6.903 22.217,9.377 C22.217,11.826 24.216,13.851 26.666,13.851 C29.140,13.851 31.140,11.826 31.140,9.377 C31.140,6.903 29.140,4.903 26.666,4.903 ZM9.241,18.750 C9.241,18.750 -0.007,18.750 -0.007,18.750 C-0.007,18.750 -0.007,0.004 -0.007,0.004 C-0.007,0.004 8.266,0.004 8.266,0.004 C11.265,0.004 13.815,2.579 13.815,5.578 C13.815,6.853 13.340,8.028 12.615,8.952 C13.890,9.977 14.740,11.551 14.740,13.251 C14.740,16.225 12.215,18.750 9.241,18.750 ZM7.291,4.078 C7.291,4.078 4.917,4.078 4.917,4.078 C4.917,4.078 4.917,7.327 4.917,7.327 C4.917,7.327 7.291,7.327 7.291,7.327 C8.191,7.327 8.916,6.603 8.916,5.703 C8.916,4.803 8.191,4.078 7.291,4.078 ZM8.216,11.451 C8.216,11.451 4.917,11.451 4.917,11.451 C4.917,11.451 4.917,14.701 4.917,14.701 C4.917,14.701 8.216,14.701 8.216,14.701 C9.116,14.701 9.841,13.976 9.841,13.076 C9.841,12.177 9.066,11.451 8.216,11.451 Z" id="path-1" class="cls-2" fill-rule="evenodd"/>
</svg>
